<?xml version="1.0"?>
<svg xmlns="http://www.w3.org/2000/svg" xmlns:xlink="http://www.w3.org/1999/xlink" xmlns:svgjs="http://svgjs.com/svgjs" version="1.1" width="512" height="512" x="0" y="0" viewBox="0 0 512 512" style="enable-background:new 0 0 512 512" xml:space="preserve" class=""><g><g xmlns="http://www.w3.org/2000/svg"><path d="m0 315.03c0-146.354 118.643-264.996 264.996-264.996h55.004v-35.005c0-12.987 15.382-19.837 25.034-11.149l100 90c6.621 5.959 6.621 16.34 0 22.299l-100 90c-9.652 8.688-25.034 1.837-25.034-11.149v-34.996h-51.157c-105.164 0-199.931 63.465-239.973 160.707-6.256 15.193-28.87 10.72-28.87-5.711z" fill="#1089FF " data-original="#000000" style="" class=""/><g><path d="m512 196.97c0 146.353-118.643 264.996-264.996 264.996h-55.004v35.004c0 12.987-15.382 19.837-25.034 11.149l-100-90c-6.621-5.959-6.621-16.34 0-22.299l100-90c9.653-8.688 25.034-1.837 25.034 11.149v34.996h51.157c105.164 0 199.931-63.465 239.973-160.707 6.256-15.192 28.87-10.719 28.87 5.712z" fill="#1089FF " data-original="#000000" style="" class=""/></g></g></g></svg>
