<?xml version="1.0"?>
<svg xmlns="http://www.w3.org/2000/svg" xmlns:xlink="http://www.w3.org/1999/xlink" xmlns:svgjs="http://svgjs.com/svgjs" version="1.1" width="512" height="512" x="0" y="0" viewBox="0 0 512 512" style="enable-background:new 0 0 512 512" xml:space="preserve" class=""><g><g xmlns="http://www.w3.org/2000/svg"><path d="m382.545 60.207c4.143 0 7.5-3.357 7.5-7.5s-3.357-7.5-7.5-7.5h-43.754c-4.143 0-7.5 3.357-7.5 7.5s3.357 7.5 7.5 7.5z" fill="#ff9b00" data-original="#000000" style=""/><path d="m301.291 82.695c0 4.143 3.357 7.5 7.5 7.5h73.754c4.143 0 7.5-3.357 7.5-7.5s-3.357-7.5-7.5-7.5h-73.754c-4.143 0-7.5 3.358-7.5 7.5z" fill="#ff9b00" data-original="#000000" style=""/><path d="m308.791 120.183h73.754c4.143 0 7.5-3.357 7.5-7.5s-3.357-7.5-7.5-7.5h-73.754c-4.143 0-7.5 3.357-7.5 7.5s3.357 7.5 7.5 7.5z" fill="#ff9b00" data-original="#000000" style=""/><path d="m290.61 180.158c4.143 0 7.5-3.357 7.5-7.5s-3.357-7.5-7.5-7.5h-141.155c-4.143 0-7.5 3.357-7.5 7.5s3.357 7.5 7.5 7.5z" fill="#ff9b00" data-original="#000000" style=""/><path d="m129.455 210.146h253.09c4.143 0 7.5-3.357 7.5-7.5s-3.357-7.5-7.5-7.5h-253.09c-4.143 0-7.5 3.357-7.5 7.5s3.357 7.5 7.5 7.5z" fill="#ff9b00" data-original="#000000" style=""/><path d="m382.545 225.135h-253.09c-4.143 0-7.5 3.357-7.5 7.5s3.357 7.5 7.5 7.5h253.09c4.143 0 7.5-3.357 7.5-7.5s-3.357-7.5-7.5-7.5z" fill="#ff9b00" data-original="#000000" style=""/><path d="m290.61 270.122c4.143 0 7.5-3.357 7.5-7.5s-3.357-7.5-7.5-7.5h-141.155c-4.143 0-7.5 3.357-7.5 7.5s3.357 7.5 7.5 7.5z" fill="#ff9b00" data-original="#000000" style=""/><path d="m382.545 285.11h-253.09c-4.143 0-7.5 3.357-7.5 7.5s3.357 7.5 7.5 7.5h253.09c4.143 0 7.5-3.357 7.5-7.5s-3.357-7.5-7.5-7.5z" fill="#ff9b00" data-original="#000000" style=""/><path d="m382.545 315.098h-253.09c-4.143 0-7.5 3.357-7.5 7.5s3.357 7.5 7.5 7.5h253.09c4.143 0 7.5-3.357 7.5-7.5s-3.357-7.5-7.5-7.5z" fill="#ff9b00" data-original="#000000" style=""/><path d="m390.045 352.586c0-4.143-3.357-7.5-7.5-7.5h-253.09c-4.143 0-7.5 3.357-7.5 7.5s3.357 7.5 7.5 7.5h253.09c4.143 0 7.5-3.357 7.5-7.5z" fill="#ff9b00" data-original="#000000" style=""/><path d="m149.455 375.073c-4.143 0-7.5 3.357-7.5 7.5s3.357 7.5 7.5 7.5h51.189c4.143 0 7.5-3.357 7.5-7.5s-3.357-7.5-7.5-7.5z" fill="#ff9b00" data-original="#000000" style=""/><path d="m349.493 433.039c-.606.752-1.623 2.011-2.012 2.195-.001 0-.066.018-.23.018-.144 0-.212-.014-.218-.014v.001c-.404-.192-1.419-1.449-2.026-2.2-2.353-2.912-6.29-7.787-13.911-7.787s-11.559 4.875-13.911 7.788c-.607.752-1.623 2.01-2.012 2.194-.001 0-.065.018-.229.018-.143 0-.21-.013-.217-.013-.404-.193-1.418-1.449-2.024-2.199-2.353-2.913-6.29-7.788-13.911-7.788-4.143 0-7.5 3.357-7.5 7.5s3.357 7.5 7.5 7.5c.143 0 .21.013.217.013.404.193 1.418 1.449 2.024 2.199 2.353 2.913 6.29 7.788 13.911 7.788s11.559-4.875 13.911-7.788c.607-.752 1.623-2.01 2.012-2.194.001 0 .065-.018.229-.018.167 0 .22.013.218.013.404.193 1.418 1.449 2.025 2.2 2.353 2.912 6.29 7.787 13.912 7.787s11.56-4.875 13.912-7.787c.607-.752 1.624-2.011 2.012-2.195.001 0 .066-.018.23-.018 4.143 0 7.5-3.357 7.5-7.5s-3.357-7.5-7.5-7.5c-7.622 0-11.559 4.875-13.912 7.787z" fill="#ff9b00" data-original="#000000" style=""/><path d="m422.366 0h-277.917c-4.143 0-7.5 3.357-7.5 7.5s3.357 7.5 7.5 7.5h277.917c2.167 0 3.931 1.764 3.931 3.931v393.053c0 4.143 3.357 7.5 7.5 7.5s7.5-3.357 7.5-7.5v-393.053c0-10.439-8.492-18.931-18.931-18.931z" fill="#ff9b00" data-original="#000000" style=""/><path d="m433.797 434.471c-4.143 0-7.5 3.357-7.5 7.5v51.099c0 2.167-1.764 3.931-3.931 3.931h-281.976v-46.907c0-8.734-7.106-15.841-15.841-15.841h-38.846v-415.322c0-2.167 1.764-3.931 3.931-3.931h24.828c4.143 0 7.5-3.357 7.5-7.5s-3.357-7.5-7.5-7.5h-24.828c-10.439 0-18.931 8.492-18.931 18.931v422.821c0 1.812.655 3.562 1.846 4.928l54.687 62.748c1.425 1.634 3.486 2.572 5.654 2.572h289.477c10.438 0 18.931-8.492 18.931-18.931v-51.099c-.001-4.142-3.359-7.499-7.501-7.499zm-308.407 15.622v34.386l-30.701-35.227h29.861c.463 0 .84.377.84.841z" fill="#ff9b00" data-original="#000000" style=""/></g></g></svg>
